<?xml version="1.0" encoding="utf-8" ?>
<svg baseProfile="full" color-interpolation="linearRGB" height="1200px" shape-rendering="geometricPrecision" version="1.1" viewBox="0,0,1200,1200" width="1200px" xmlns="http://www.w3.org/2000/svg" xmlns:ev="http://www.w3.org/2001/xml-events" xmlns:xlink="http://www.w3.org/1999/xlink"><title>Stemsilver vector export</title><desc>Rendered at a 1200 DPI equivalent viewport with 10-bit-friendly linear RGB metadata.</desc><defs /><path d="M 880.923 600.754 C 880.923 527.319 850.692 454.336 798.766 402.410 C 746.840 350.484 673.857 320.254 600.423 320.254 C 526.988 320.254 454.005 350.484 402.079 402.410 C 350.153 454.336 319.923 527.319 319.923 600.754 C 319.923 674.188 350.153 747.171 402.079 799.097 C 454.005 851.023 526.988 881.254 600.423 881.254 C 673.857 881.254 746.840 851.023 798.766 799.097 C 850.692 747.171 880.923 674.188 880.923 600.754" fill="none" stroke="#51C6FF" stroke-linecap="round" stroke-linejoin="round" stroke-opacity="0.5" stroke-width="12.0" /><path d="M 982.923 600.754 C 982.923 596.769 982.860 592.785 982.736 588.802 C 982.611 584.820 982.425 580.840 982.176 576.863 C 981.927 572.886 981.616 568.914 981.243 564.947 C 980.870 560.980 980.435 557.019 979.938 553.066 C 979.441 549.112 978.883 545.167 978.263 541.231 C 977.643 537.295 976.961 533.369 976.219 529.454 C 975.476 525.540 974.672 521.637 973.807 517.748 C 972.943 513.858 972.017 509.982 971.032 506.122" fill="none" stroke="#F5F7FF" stroke-linecap="round" stroke-linejoin="round" stroke-opacity="0.35" stroke-width="9.0" /><path d="M 773.923 259.867 C 770.372 258.060 766.793 256.308 763.187 254.612 C 759.582 252.917 755.950 251.278 752.293 249.696 C 748.636 248.114 744.954 246.589 741.250 245.122 C 737.545 243.655 733.818 242.246 730.069 240.895 C 726.321 239.545 722.551 238.253 718.762 237.020 C 714.973 235.788 711.165 234.614 707.340 233.500 C 703.514 232.387 699.671 231.333 695.813 230.339 C 691.954 229.345 688.080 228.412 684.193 227.539" fill="none" stroke="#F5F7FF" stroke-linecap="round" stroke-linejoin="round" stroke-opacity="0.35" stroke-width="9.0" /><path d="M 375.321 291.504 C 372.100 293.849 368.915 296.244 365.768 298.688 C 362.622 301.132 359.513 303.626 356.445 306.167 C 353.376 308.709 350.347 311.298 347.360 313.934 C 344.372 316.570 341.425 319.253 338.522 321.981 C 335.618 324.709 332.756 327.483 329.939 330.300 C 327.122 333.118 324.349 335.979 321.621 338.884 C 318.893 341.788 316.211 344.735 313.575 347.723 C 310.939 350.711 308.350 353.740 305.809 356.809" fill="none" stroke="#F5F7FF" stroke-linecap="round" stroke-linejoin="round" stroke-opacity="0.35" stroke-width="9.0" /><path d="M 222.712 661.091 C 223.340 665.026 224.030 668.951 224.781 672.863 C 225.532 676.776 226.345 680.678 227.218 684.565 C 228.091 688.453 229.024 692.327 230.019 696.185 C 231.013 700.043 232.067 703.886 233.181 707.712 C 234.295 711.537 235.469 715.345 236.702 719.134 C 237.935 722.923 239.228 726.692 240.579 730.440 C 241.930 734.189 243.339 737.916 244.806 741.620 C 246.274 745.325 247.799 749.006 249.381 752.663" fill="none" stroke="#F5F7FF" stroke-linecap="round" stroke-linejoin="round" stroke-opacity="0.35" stroke-width="9.0" /><path d="M 482.868 964.741 C 486.659 965.966 490.470 967.131 494.298 968.237 C 498.126 969.342 501.971 970.388 505.832 971.373 C 509.692 972.359 513.568 973.283 517.458 974.148 C 521.347 975.012 525.250 975.815 529.165 976.558 C 533.080 977.300 537.006 977.981 540.942 978.601 C 544.878 979.220 548.823 979.778 552.777 980.275 C 556.730 980.771 560.691 981.205 564.658 981.578 C 568.625 981.951 572.598 982.261 576.574 982.509" fill="none" stroke="#F5F7FF" stroke-linecap="round" stroke-linejoin="round" stroke-opacity="0.35" stroke-width="9.0" /><path d="M 871.489 870.623 C 874.300 867.799 877.067 864.932 879.788 862.022 C 882.510 859.112 885.186 856.159 887.815 853.165 C 890.445 850.172 893.027 847.137 895.562 844.063 C 898.096 840.988 900.582 837.874 903.020 834.722 C 905.457 831.570 907.845 828.380 910.182 825.153 C 912.520 821.927 914.807 818.663 917.042 815.365 C 919.278 812.067 921.462 808.734 923.593 805.368 C 925.725 802.001 927.803 798.602 929.829 795.170" fill="none" stroke="#F5F7FF" stroke-linecap="round" stroke-linejoin="round" stroke-opacity="0.35" stroke-width="9.0" /><path d="M 912.819 537.428 C 909.652 521.808 905.313 506.426 899.848 491.455 C 894.383 476.484 887.793 461.923 880.152 447.937 C 872.511 433.950 863.819 420.538 854.174 407.851 C 844.529 395.163 833.931 383.200 822.498 372.096 C 811.065 360.993 798.798 350.748 785.834 341.477 C 772.870 332.207 759.210 323.911 745.006 316.681 C 730.803 309.452 716.056 303.290 700.932 298.265 C 685.807 293.239 670.305 289.350 654.600 286.642" fill="none" stroke="#51C6FF" stroke-linecap="round" stroke-linejoin="round" stroke-opacity="0.55" stroke-width="30.0" /><path d="M 388.047 363.060 C 376.162 373.679 365.076 385.191 354.911 397.466 C 344.747 409.742 335.505 422.781 327.289 436.438 C 319.073 450.094 311.884 464.368 305.801 479.099 C 299.718 493.830 294.743 509.018 290.930 524.493 C 287.117 539.968 284.466 555.729 283.009 571.599 C 281.551 587.470 281.286 603.450 282.216 619.360 C 283.146 635.271 285.272 651.111 288.570 666.704 C 291.867 682.296 296.336 697.641 301.927 712.566" fill="none" stroke="#51C6FF" stroke-linecap="round" stroke-linejoin="round" stroke-opacity="0.55" stroke-width="30.0" /><path d="M 417.197 861.580 C 430.239 870.741 443.968 878.922 458.232 886.032 C 472.496 893.141 487.294 899.179 502.460 904.077 C 517.626 908.975 533.160 912.733 548.888 915.310 C 564.616 917.887 580.537 919.282 596.474 919.479 C 612.410 919.677 628.361 918.677 644.148 916.490 C 659.935 914.304 675.557 910.932 690.840 906.411 C 706.123 901.890 721.066 896.221 735.501 889.467 C 749.937 882.713 763.865 874.874 777.129 866.039" fill="none" stroke="#51C6FF" stroke-linecap="round" stroke-linejoin="round" stroke-opacity="0.55" stroke-width="30.0" /><path d="M 810.798 600.754 C 810.798 545.678 788.125 490.941 749.180 451.996 C 710.236 413.051 655.499 390.379 600.423 390.379 C 545.347 390.379 490.610 413.051 451.665 451.996 C 412.720 490.941 390.048 545.678 390.048 600.754 C 390.048 655.830 412.720 710.567 451.665 749.511 C 490.610 788.456 545.347 811.129 600.423 811.129 C 655.499 811.129 710.236 788.456 749.180 749.511 C 788.125 710.567 810.798 655.830 810.798 600.754" fill="none" stroke="#51C6FF" stroke-linecap="round" stroke-linejoin="round" stroke-opacity="0.8" stroke-width="21.000000000000004" /><path d="M 753.423 600.754 C 753.423 560.698 736.933 520.890 708.610 492.566 C 680.287 464.243 640.478 447.754 600.423 447.754 C 560.367 447.754 520.559 464.243 492.235 492.566 C 463.912 520.890 447.423 560.698 447.423 600.754 C 447.423 640.809 463.912 680.618 492.235 708.941 C 520.559 737.264 560.367 753.754 600.423 753.754 C 640.478 753.754 680.287 737.264 708.610 708.941 C 736.933 680.618 753.423 640.809 753.423 600.754" fill="#6BDCFF" fill-opacity="0.9" stroke="#F5F7FF" stroke-linecap="round" stroke-linejoin="round" stroke-opacity="0.6" stroke-width="27.0" /><path d="M 844.789 367.523 C 844.789 362.850 842.866 358.206 839.561 354.901 C 836.257 351.597 831.612 349.673 826.939 349.673 C 822.266 349.673 817.622 351.597 814.317 354.901 C 811.013 358.206 809.089 362.850 809.089 367.523 C 809.089 372.196 811.013 376.841 814.317 380.145 C 817.622 383.450 822.266 385.373 826.939 385.373 C 831.612 385.373 836.257 383.450 839.561 380.145 C 842.866 376.841 844.789 372.196 844.789 367.523" fill="#FF9FB5" fill-opacity="1.0" stroke="none" /><path d="M 339.677 433.151 C 339.677 428.478 337.753 423.834 334.448 420.529 C 331.144 417.225 326.500 415.301 321.827 415.301 C 317.153 415.301 312.509 417.225 309.205 420.529 C 305.900 423.834 303.977 428.478 303.977 433.151 C 303.977 437.824 305.900 442.469 309.205 445.773 C 312.509 449.078 317.153 451.001 321.827 451.001 C 326.500 451.001 331.144 449.078 334.448 445.773 C 337.753 442.469 339.677 437.824 339.677 433.151" fill="#FF9FB5" fill-opacity="1.0" stroke="none" /><path d="M 518.351 910.143 C 518.351 905.470 516.427 900.826 513.123 897.521 C 509.818 894.217 505.174 892.293 500.501 892.293 C 495.828 892.293 491.183 894.217 487.879 897.521 C 484.575 900.826 482.651 905.470 482.651 910.143 C 482.651 914.816 484.575 919.461 487.879 922.765 C 491.183 926.070 495.828 927.993 500.501 927.993 C 505.174 927.993 509.818 926.070 513.123 922.765 C 516.427 919.461 518.351 914.816 518.351 910.143" fill="#FF9FB5" fill-opacity="1.0" stroke="none" /></svg>